<?xml version="1.0" standalone="no"?>
<!DOCTYPE svg PUBLIC "-//W3C//DTD SVG 20010904//EN"
 "http://www.w3.org/TR/2001/REC-SVG-20010904/DTD/svg10.dtd">
<svg version="1.0" xmlns="http://www.w3.org/2000/svg"
 width="398.000000pt" height="398.000000pt" viewBox="0 0 398.000000 398.000000"
 preserveAspectRatio="xMidYMid meet">
<metadata>
Created by potrace 1.14, written by Peter Selinger 2001-2017
</metadata>
<g transform="translate(0.000000,398.000000) scale(0.100000,-0.100000)"
fill="#000000" stroke="none">
<path d="M750 3970 c-137 -14 -261 -56 -357 -121 -191 -129 -312 -297 -366
-507 l-22 -87 0 -1260 c0 -1191 1 -1264 19 -1340 37 -162 110 -291 230 -410
121 -119 243 -187 403 -223 72 -16 176 -17 1333 -17 1140 0 1262 2 1330 17
162 36 285 104 406 223 121 119 192 247 231 411 17 75 18 150 18 1339 l0 1260
-22 87 c-56 219 -192 401 -389 521 -65 39 -135 67 -234 94 -60 15 -164 17
-1285 19 -671 1 -1254 -2 -1295 -6z m2615 -90 c243 -77 438 -273 515 -515 l25
-80 2 -905 2 -905 -31 60 c-20 37 -35 83 -39 120 -4 33 -17 92 -29 130 -12 39
-26 117 -30 175 -4 58 -22 164 -38 235 -17 72 -33 169 -37 217 -12 172 -87
426 -161 548 -12 19 -25 46 -29 59 -9 28 -39 60 -79 81 -17 9 -33 30 -41 53
-13 38 -84 139 -120 169 -49 42 -272 129 -444 172 -63 17 -221 43 -296 51
-105 10 -571 4 -735 -10 -30 -3 -84 -7 -120 -11 -146 -12 -543 -66 -665 -89
-222 -42 -380 -105 -428 -169 -49 -66 -103 -242 -167 -541 -11 -49 -31 -139
-45 -200 -32 -134 -86 -387 -165 -765 -33 -157 -64 -303 -69 -325 -26 -111
-61 -273 -64 -300 -3 -16 -4 460 -3 1060 l1 1090 25 80 c89 281 327 488 620
538 14 3 597 4 1295 3 l1270 -1 80 -25z m302 -1332 c-3 -7 -5 -2 -5 12 0 14 2
19 5 13 2 -7 2 -19 0 -25z m13 -38 c0 -11 -2 -20 -4 -20 -2 0 -6 9 -9 20 -3
11 -1 20 4 20 5 0 9 -9 9 -20z m139 -824 c0 -20 -1 -20 -8 -1 -5 11 -11 36
-15 55 l-7 35 16 -34 c8 -18 15 -43 14 -55z m3 -58 c5 -44 3 -120 -3 -124 -4
-2 -9 27 -11 66 -2 38 0 70 5 70 4 0 8 -6 9 -12z m62 -144 c23 -50 26 -70 26
-166 0 -107 -13 -166 -39 -183 -9 -5 -10 7 -5 43 3 28 1 97 -6 154 -20 169
-21 208 -5 208 2 0 15 -25 29 -56z m-57 -16 c-3 -8 -6 -5 -6 6 -1 11 2 17 5
13 3 -3 4 -12 1 -19z m21 -178 c-1 -38 -18 44 -23 110 -4 54 -4 54 10 -15 7
-38 14 -81 13 -95z m-41 -137 c-2 -21 -4 -4 -4 37 0 41 2 58 4 38 2 -21 2 -55
0 -75z m30 -35 c-3 -7 -5 -2 -5 12 0 14 2 19 5 13 2 -7 2 -19 0 -25z m70 -228
c-6 -220 -15 -268 -78 -395 -88 -180 -258 -326 -457 -394 l-77 -26 -1305 0
-1305 0 -77 26 c-199 68 -369 214 -457 394 -63 126 -72 175 -78 390 l-4 190
21 -42 c18 -35 34 -48 93 -77 191 -94 317 -130 652 -185 66 -11 145 -25 175
-31 30 -6 77 -13 104 -15 27 -3 126 -14 220 -25 94 -11 196 -22 226 -24 284
-24 384 -29 575 -30 161 0 252 5 339 18 124 18 143 15 132 -22 -8 -24 -72 -35
-211 -37 -84 -1 -90 -2 -93 -23 -4 -28 41 -42 66 -20 9 9 31 19 47 23 45 11
125 14 125 4 0 -5 7 -5 17 -2 11 4 14 3 9 -6 -4 -6 -16 -9 -25 -6 -10 3 -42
-7 -71 -22 -33 -17 -65 -26 -85 -25 -19 2 -37 -3 -44 -12 -10 -12 -24 -14 -51
-10 -31 5 -40 3 -53 -17 -35 -49 35 -62 108 -19 25 14 34 15 54 4 14 -7 26
-21 27 -32 3 -18 0 -18 -42 -9 -33 8 -48 7 -56 -1 -9 -9 -2 -12 30 -12 36 0
42 -3 42 -21 0 -23 5 -23 67 2 31 13 33 12 70 -28 42 -45 72 -57 145 -58 25 0
44 -4 41 -9 -7 -11 102 2 169 20 32 8 57 10 68 4 23 -13 150 -20 150 -9 0 5
-19 9 -42 10 -24 0 -52 4 -63 8 -17 7 -15 9 15 19 30 10 159 31 197 32 7 0 20
8 30 18 20 21 72 43 157 68 57 17 59 17 72 -1 19 -25 18 -26 -23 -58 -37 -28
-63 -37 -165 -57 -32 -6 -58 -15 -58 -20 0 -22 218 36 253 67 9 9 22 34 28 55
11 44 30 55 114 64 63 6 73 -8 33 -47 -14 -13 -17 -20 -8 -17 8 2 22 18 30 36
8 17 23 34 33 38 9 3 17 11 17 19 0 11 53 32 71 27 4 -1 15 8 25 20 15 16 16
22 6 26 -9 3 -3 11 17 23 33 20 42 49 16 49 -12 0 -14 4 -7 16 10 17 4 64 -8
64 -13 0 -28 47 -19 61 22 36 40 126 38 196 -2 65 1 78 17 90 17 13 19 12 23
-14 1 -15 1 -116 -2 -223z m-82 140 c-9 -41 -17 -33 -9 9 4 17 9 30 11 27 3
-2 2 -19 -2 -36z m20 -57 c-1 -16 -6 -39 -12 -53 -6 -14 -13 -34 -16 -45 -3
-13 -5 -9 -6 12 -1 27 25 113 34 113 1 0 2 -12 0 -27z m-583 -160 c-26 -18
-82 -28 -82 -14 0 4 19 13 43 18 59 15 65 14 39 -4z m513 -31 c-10 -10 -16
-12 -13 -7 3 6 8 19 13 30 5 14 9 16 12 7 3 -8 -3 -21 -12 -30z m55 -17 c13
-35 -6 -75 -37 -75 -12 0 -23 5 -23 11 0 12 41 89 47 89 2 0 8 -11 13 -25z
m-785 -5 c-3 -5 -16 -10 -28 -9 -20 1 -20 2 3 9 14 4 26 8 28 9 2 1 0 -3 -3
-9z m-300 -58 c-18 -15 -95 -33 -108 -25 -7 5 12 12 48 19 33 7 62 12 65 13 2
1 0 -3 -5 -7z m150 -5 c-11 -7 -32 -18 -47 -25 -25 -10 -28 -9 -28 7 0 25 4
27 52 29 39 3 41 2 23 -11z m70 -7 c-27 -12 -43 -12 -25 0 8 5 22 9 30 9 10 0
8 -3 -5 -9z m-198 -27 c5 -13 -56 -23 -63 -11 -6 9 35 28 50 24 6 -1 11 -7 13
-13z m33 7 c0 -5 -2 -10 -4 -10 -3 0 -8 5 -11 10 -3 6 -1 10 4 10 6 0 11 -4
11 -10z m940 -54 c0 -2 -9 -6 -20 -9 -11 -3 -18 -1 -14 4 5 9 34 13 34 5z
m-1385 -36 c-3 -5 -15 -10 -26 -10 -11 0 -17 5 -14 10 3 6 15 10 26 10 11 0
17 -4 14 -10z m155 -86 c0 -8 -5 -12 -10 -9 -6 4 -8 11 -5 16 9 14 15 11 15
-7z m-236 -9 c-4 -8 -12 -15 -20 -15 -8 0 -11 6 -8 15 4 8 12 15 20 15 8 0 11
-6 8 -15z m946 1 c0 -5 -10 -11 -22 -12 -69 -8 -99 -14 -108 -19 -5 -3 -11 -1
-14 4 -8 13 6 20 56 31 52 10 89 8 88 -4z m-895 -6 c-3 -5 -15 -10 -26 -10
-11 0 -17 5 -14 10 3 6 15 10 26 10 11 0 17 -4 14 -10z m575 0 c0 -12 -28 -25
-36 -17 -9 9 6 27 22 27 8 0 14 -5 14 -10z m-60 -14 c0 -8 -15 -17 -36 -21
-39 -7 -59 1 -28 10 10 4 26 10 34 15 22 13 30 12 30 -4z m199 -3 c-22 -29
-32 -33 -61 -27 -20 4 -28 1 -32 -14 -9 -27 -50 -34 -64 -11 -10 15 -7 20 20
33 19 10 44 14 67 10 24 -4 42 0 56 10 26 20 30 20 14 -1z m-540 -9 c9 -8 -13
-24 -35 -24 -17 0 -24 5 -24 20 0 17 4 19 28 14 15 -4 29 -8 31 -10z m235 -2
c5 -9 4 -9 -59 -17 -22 -2 -31 -2 -20 1 11 3 24 10 30 15 11 11 42 12 49 1z
m531 -2 c-27 -12 -35 -12 -35 0 0 6 12 10 28 9 24 0 25 -1 7 -9z m-34 -25 c5
4 9 2 9 -4 0 -18 -18 -21 -24 -5 -4 11 -10 13 -19 7 -6 -6 -28 -13 -47 -16
-32 -6 -34 -6 -16 8 11 8 28 15 37 15 10 0 21 5 25 11 5 8 10 6 16 -5 5 -9 13
-14 19 -11z m-106 5 c-3 -5 -15 -10 -25 -10 -10 0 -21 -4 -24 -9 -3 -5 -15
-11 -26 -14 -31 -8 -24 20 8 31 36 14 75 15 67 2z m-327 -12 c-3 -7 -14 -14
-26 -16 -11 -2 -24 -12 -27 -23 -5 -15 -16 -19 -51 -19 -51 0 -55 10 -16 36
23 15 50 23 115 33 5 0 7 -5 5 -11z m58 -40 c-6 -4 -20 -8 -30 -8 -18 0 -18 2
4 25 22 24 25 24 31 8 3 -10 1 -21 -5 -25z m-270 7 c16 -8 22 -15 13 -15 -8 0
-24 7 -35 15 -25 19 -14 19 22 0z m54 5 c0 -5 -5 -10 -11 -10 -5 0 -7 5 -4 10
3 6 8 10 11 10 2 0 4 -4 4 -10z m323 -11 c-6 -6 -19 -9 -29 -6 -17 3 -16 5 6
14 28 12 39 8 23 -8z m-63 -13 c0 -3 -4 -8 -10 -11 -5 -3 -10 -1 -10 4 0 6 5
11 10 11 6 0 10 -2 10 -4z"/>
<path d="M3135 330 c-14 -6 -7 -8 28 -7 26 1 47 5 47 9 0 10 -50 9 -75 -2z"/>
</g>
</svg>
